{"glyphs":{":":{"x_min":0,"x_max":308,"ha":308,"o":"m 160 320 q 141 320 129 332 q 116 345 116 364 q 116 394 132 414 q 148 434 171 434 q 190 434 203 421 q 215 409 215 389 q 215 360 199 340 q 183 320 160 320 z m 102 -6 q 83 -6 70 7 q 57 19 57 38 q 57 68 73 88 q 89 108 112 108 q 131 108 143 95 q 156 82 156 62 q 156 33 140 13 q 125 -6 102 -6 z"},"$":{"x_min":0,"x_max":542,"ha":542,"o":"m 280 286 l 231 44 q 235 43 239 43 q 243 43 250 43 q 311 43 348 75 q 385 107 385 159 q 385 200 363 227 q 340 255 280 286 z m 111 227 q 109 213 108 200 q 107 188 107 177 q 107 128 131 94 q 154 61 195 50 l 245 304 q 167 342 134 381 q 101 421 101 475 q 101 558 154 609 q 207 660 293 660 q 296 660 303 660 q 310 659 313 659 l 327 734 l 367 734 l 350 652 q 378 643 397 629 q 417 616 432 597 l 445 662 l 498 662 q 487 612 478 566 q 469 519 462 473 l 412 473 q 413 479 414 486 q 414 493 414 506 q 414 547 396 574 q 379 601 343 614 l 299 382 q 387 342 424 299 q 462 255 462 197 q 462 111 406 56 q 351 2 263 2 q 257 2 247 3 q 238 3 226 5 l 203 -104 l 165 -104 l 187 13 q 153 23 128 40 q 104 56 87 80 l 72 0 l 18 0 q 30 57 40 114 q 49 170 56 227 z m 264 402 l 305 620 l 292 620 q 238 620 208 592 q 177 564 177 516 q 177 481 197 455 q 217 428 264 402 z"},"?":{"x_min":0,"x_max":440,"ha":440,"o":"m 334 226 q 308 193 274 176 q 240 158 202 158 q 149 158 115 189 q 82 220 82 270 q 82 308 99 337 q 116 367 168 408 q 179 417 204 434 q 266 476 295 509 q 309 524 317 543 q 324 562 324 580 q 324 611 305 628 q 287 646 254 646 q 209 646 185 619 q 161 592 157 538 l 84 538 q 90 606 134 645 q 178 683 251 683 q 318 683 358 649 q 398 614 398 557 q 398 506 368 465 q 338 424 237 354 l 230 349 q 148 292 148 248 q 148 223 163 208 q 178 193 203 193 q 231 193 253 212 q 276 230 289 265 z m 134 -6 q 115 -6 102 7 q 89 19 89 38 q 89 68 105 88 q 121 108 144 108 q 163 108 176 95 q 188 82 188 62 q 188 33 173 13 q 157 -6 134 -6 z"},"<":{"x_min":0,"x_max":833,"ha":833,"o":"m 704 559 l 704 497 l 216 298 l 704 100 l 704 37 l 129 273 l 129 323 z"},"'":{"x_min":0,"x_max":170,"ha":170,"o":"m 93 422 l 77 422 l 45 645 q 44 649 44 653 q 44 657 44 664 q 44 688 54 701 q 65 714 85 714 q 105 714 116 701 q 127 688 127 665 q 127 661 125 648 q 125 646 125 645 z"},"=":{"x_min":0,"x_max":833,"ha":833,"o":"m 124 233 l 709 233 l 709 176 l 124 176 z m 124 420 l 709 420 l 709 363 l 124 363 z"},"a":{"x_min":0,"x_max":583,"ha":583,"o":"m 437 472 l 518 485 l 448 125 q 444 104 442 88 q 440 71 440 64 q 440 51 447 45 q 453 38 465 38 q 473 38 485 44 q 497 49 513 61 l 511 19 q 482 3 459 -5 q 436 -12 416 -12 q 387 -12 374 2 q 361 16 361 48 q 361 55 363 72 q 363 74 363 75 q 326 30 285 9 q 244 -12 194 -12 q 118 -12 74 38 q 30 89 30 177 q 30 239 54 300 q 78 361 121 410 q 152 445 196 464 q 239 484 286 484 q 335 484 370 461 q 404 439 420 397 z m 379 178 l 402 300 q 403 308 404 314 q 405 321 405 328 q 405 376 375 409 q 345 441 299 441 q 268 441 240 426 q 212 410 189 380 q 157 338 139 283 q 120 227 120 173 q 120 109 150 72 q 180 35 231 35 q 278 35 323 79 q 369 122 379 178 z"},"L":{"x_min":0,"x_max":567,"ha":567,"o":"m 196 630 l 123 630 l 131 674 q 159 672 187 672 q 215 671 244 671 q 273 671 303 672 q 333 672 364 674 l 355 630 l 283 630 l 172 51 l 456 51 l 477 157 l 534 157 l 503 0 q 441 1 379 2 q 317 3 256 3 q 194 3 134 2 q 74 1 14 0 l 23 44 l 82 44 z"},"3":{"x_min":0,"x_max":542,"ha":542,"o":"m 104 169 l 104 166 q 104 100 132 65 q 159 30 211 30 q 273 30 313 82 q 352 134 352 218 q 352 280 317 311 q 283 342 213 342 q 197 342 188 341 q 179 341 171 340 l 177 380 q 183 379 188 379 q 194 379 205 379 q 286 379 331 417 q 376 456 376 525 q 376 576 350 604 q 323 632 275 632 q 229 632 200 606 q 172 580 172 537 q 172 528 173 518 q 175 509 178 499 l 102 483 q 100 494 98 504 q 97 514 97 524 q 97 588 149 630 q 202 671 285 671 q 367 671 417 632 q 467 592 467 529 q 467 465 424 421 q 381 376 302 361 q 371 351 408 309 q 446 267 446 201 q 446 107 381 49 q 317 -10 213 -10 q 130 -10 81 34 q 32 77 27 155 z"},";":{"x_min":0,"x_max":308,"ha":308,"o":"m 2 -120 q 35 -51 54 6 q 74 63 81 111 l 176 111 q 163 60 133 3 q 103 -53 52 -120 z m 150 320 q 131 320 118 332 q 106 345 106 364 q 106 394 122 414 q 138 434 161 434 q 180 434 193 421 q 205 409 205 389 q 205 360 189 340 q 173 320 150 320 z"},"J":{"x_min":0,"x_max":470,"ha":470,"o":"m 306 630 l 233 630 l 241 674 q 269 672 297 672 q 325 671 353 671 q 381 671 410 672 q 438 672 468 674 l 460 630 l 394 630 l 318 235 q 316 228 314 213 q 291 91 260 52 q 236 22 200 7 q 164 -9 119 -9 q 46 -9 6 26 q -34 62 -34 126 l -34 133 l 63 144 q 61 133 60 122 q 59 112 59 103 q 59 69 75 51 q 91 32 120 32 q 189 32 227 226 l 229 235 z"},"V":{"x_min":0,"x_max":662,"ha":662,"o":"m 248 -9 q 203 177 159 337 q 114 497 71 630 l 9 630 l 17 676 q 28 675 41 674 q 54 674 81 674 l 126 674 l 171 674 q 200 674 214 674 q 229 675 242 676 l 233 630 l 163 630 q 199 515 236 381 q 273 248 312 90 q 399 234 469 369 q 539 503 593 630 l 518 630 l 526 676 q 537 675 549 674 q 561 674 585 674 l 623 674 l 661 674 q 685 674 696 674 q 708 675 718 676 l 710 630 l 645 630 q 586 486 501 326 q 415 166 303 -9 z"},"\"":{"x_min":0,"x_max":331,"ha":331,"o":"m 253 422 l 238 422 l 206 645 q 206 646 206 648 q 204 659 204 664 q 204 688 215 701 q 226 714 246 714 q 266 714 276 701 q 287 688 287 665 q 287 658 287 654 q 287 649 286 645 z m 93 422 l 77 422 l 46 645 q 45 653 44 658 q 44 662 44 665 q 44 688 55 701 q 65 714 85 714 q 105 714 116 701 q 127 688 127 665 q 127 661 125 648 q 125 646 125 645 z"},"7":{"x_min":0,"x_max":542,"ha":542,"o":"m 130 0 q 158 70 189 139 q 220 208 252 274 l 165 274 l 177 315 l 273 315 q 309 389 347 459 q 385 529 426 595 q 400 594 371 594 q 342 594 286 594 q 231 594 204 594 q 177 594 155 595 l 136 521 l 80 521 l 118 662 q 166 661 215 660 q 264 659 314 659 q 364 659 414 660 q 464 661 515 662 l 514 654 q 466 570 425 486 q 383 401 348 315 l 435 315 l 423 274 l 330 274 q 304 211 279 143 q 254 75 230 0 z"},"S":{"x_min":0,"x_max":597,"ha":597,"o":"m 20 0 q 32 55 42 111 q 52 168 59 227 l 119 227 q 117 213 116 200 q 115 187 115 174 q 115 108 159 71 q 204 33 281 33 q 343 33 382 67 q 421 101 421 155 q 421 229 296 293 q 282 301 274 305 q 173 357 141 396 q 109 434 109 488 q 109 576 167 629 q 226 683 322 683 q 369 683 407 666 q 446 649 472 617 l 484 672 l 542 672 q 532 627 523 581 q 514 534 506 486 l 450 486 q 452 495 452 503 q 453 512 453 519 q 453 578 418 610 q 382 642 317 642 q 259 642 225 612 q 191 582 191 532 q 191 463 323 394 q 342 384 353 378 q 445 328 475 290 q 505 251 505 195 q 505 102 443 47 q 381 -9 276 -9 q 217 -9 170 12 q 123 33 93 72 l 79 0 z"},"}":{"x_min":0,"x_max":500,"ha":500,"o":"m 87 740 l 92 740 q 197 740 237 704 q 277 668 277 571 l 277 467 q 277 390 305 361 q 333 333 414 325 l 414 296 q 334 290 306 260 q 277 231 277 154 l 277 50 q 277 -47 237 -83 q 197 -119 92 -119 l 87 -119 l 87 -94 q 157 -93 182 -68 q 207 -42 207 34 l 207 104 q 207 214 237 255 q 267 295 347 310 q 267 325 237 365 q 207 406 207 516 l 207 586 q 207 662 182 688 q 156 714 87 715 z"},"Z":{"x_min":0,"x_max":613,"ha":613,"o":"m -6 0 l -4 11 l 460 627 l 135 627 l 134 622 q 125 562 117 531 l 60 531 q 67 565 74 601 q 81 636 87 674 l 587 674 l 587 662 l 125 46 l 471 46 l 474 59 q 486 121 490 145 l 547 145 q 538 104 531 68 q 524 32 518 0 z"},"x":{"x_min":0,"x_max":509,"ha":509,"o":"m 271 0 l 279 39 l 334 39 l 230 191 l 99 39 l 156 39 l 148 0 q 133 1 115 1 q 97 2 62 2 q 27 2 10 1 q -7 1 -21 0 l -13 39 l 41 39 l 207 227 l 67 433 l 11 433 l 19 474 q 29 473 42 473 q 55 472 80 472 l 122 472 l 156 472 q 185 472 199 473 q 213 474 225 475 l 218 433 l 160 433 l 262 283 l 390 433 l 337 433 l 345 475 q 354 474 365 473 q 376 472 400 472 l 428 472 l 456 472 q 480 472 492 473 q 504 474 514 475 l 506 433 l 448 433 l 285 247 l 428 39 l 480 39 l 474 0 q 456 1 434 1 q 413 2 371 2 q 330 2 309 1 q 289 1 271 0 z"},")":{"x_min":0,"x_max":352,"ha":352,"o":"m 124 733 q 186 697 217 617 q 248 537 248 413 q 248 354 240 292 q 231 230 215 167 q 199 105 179 54 q 159 3 136 -34 q 100 -91 58 -125 q 16 -159 -32 -169 l -27 -136 q 18 -112 51 -56 q 84 1 105 87 q 137 222 154 333 q 171 445 171 520 q 171 580 157 626 q 144 673 118 700 z"},"&":{"x_min":0,"x_max":676,"ha":676,"o":"m 404 87 q 369 145 333 206 q 298 268 259 342 q 197 320 162 278 q 128 237 128 184 q 128 119 169 77 q 209 35 274 35 q 307 35 339 48 q 370 60 404 87 z m 319 402 q 376 426 406 460 q 435 495 435 538 q 435 574 415 596 q 395 618 362 618 q 323 618 300 594 q 277 570 277 530 q 277 504 287 473 q 297 442 319 402 z m 460 0 l 424 56 q 382 23 335 7 q 289 -9 238 -9 q 147 -9 93 38 q 39 84 39 162 q 39 237 91 292 q 143 346 240 375 q 224 405 216 434 q 208 462 208 491 q 208 565 251 610 q 293 655 365 655 q 424 655 460 621 q 496 586 496 531 q 496 476 458 437 q 419 399 334 369 q 362 313 393 259 q 424 204 458 150 q 480 177 492 210 q 504 243 504 279 q 504 286 501 305 q 500 314 500 319 l 583 332 q 579 269 554 215 q 529 161 482 116 l 529 42 l 610 42 l 602 0 q 589 1 574 1 q 560 2 530 2 q 501 2 487 1 q 472 1 460 0 z"},"_":{"x_min":0,"x_max":500,"ha":500,"o":"m 0 -178 l 500 -178 l 500 -236 l 0 -236 z"},"v":{"x_min":0,"x_max":509,"ha":509,"o":"m 8 433 l 16 472 l 19 472 q 82 470 111 470 q 128 470 148 470 q 167 471 200 472 l 193 433 l 139 433 q 163 347 186 261 q 208 175 229 90 q 308 209 356 295 q 404 381 422 433 l 369 433 l 377 472 q 391 472 407 471 q 423 471 455 471 q 487 471 503 471 q 519 472 532 472 l 524 433 l 475 433 q 450 373 395 277 q 340 181 219 -9 l 171 -9 q 146 98 118 207 q 90 317 57 433 z"},"O":{"x_min":0,"x_max":803,"ha":803,"o":"m 368 32 q 433 32 483 58 q 534 84 575 138 q 612 186 633 256 q 654 327 654 403 q 654 515 595 578 q 537 641 434 641 q 371 641 320 615 q 269 589 228 535 q 189 485 169 417 q 148 349 148 273 q 148 159 206 96 q 264 32 368 32 z m 373 -9 q 224 -9 136 74 q 49 157 49 298 q 49 367 71 431 q 93 495 135 547 q 188 612 264 648 q 341 683 430 683 q 579 683 666 600 q 754 516 754 376 q 754 306 732 242 q 710 179 668 126 q 615 61 539 26 q 462 -9 373 -9 z"},"(":{"x_min":0,"x_max":352,"ha":352,"o":"m 215 -169 q 154 -134 123 -55 q 91 23 91 139 q 91 247 113 352 q 134 457 175 546 q 210 624 261 672 q 312 720 372 733 l 366 700 q 322 676 288 620 q 254 563 234 477 q 201 342 185 230 q 168 119 168 36 q 168 -19 182 -65 q 196 -110 221 -136 z"},"C":{"x_min":0,"x_max":711,"ha":711,"o":"m 644 136 q 594 63 524 27 q 454 -9 363 -9 q 220 -9 134 74 q 48 157 48 294 q 48 370 74 438 q 100 507 148 562 q 200 620 273 652 q 346 683 430 683 q 494 683 542 664 q 589 646 622 608 l 634 674 l 689 674 q 680 635 671 589 q 662 543 654 491 l 601 491 l 603 510 q 603 512 604 516 q 604 520 604 521 q 604 576 558 609 q 513 641 435 641 q 381 641 337 624 q 293 606 258 571 q 207 519 177 442 q 147 365 147 284 q 147 167 207 100 q 267 32 370 32 q 437 32 493 66 q 548 99 598 170 z"},"W":{"x_min":0,"x_max":965,"ha":965,"o":"m 214 -9 q 184 157 153 316 q 122 476 89 630 l 30 630 l 38 676 q 49 675 62 674 q 74 674 100 674 l 142 674 l 177 674 q 207 674 221 675 q 236 675 249 677 l 240 630 l 175 630 q 218 415 239 308 q 260 200 277 109 q 342 247 401 388 q 460 529 514 674 l 564 674 q 584 539 608 400 q 632 261 662 108 q 725 238 782 369 q 839 500 890 630 l 825 630 l 834 676 q 842 675 852 674 q 862 674 882 674 l 914 674 l 947 674 q 968 674 978 674 q 988 675 997 676 l 988 630 l 941 630 q 880 477 809 317 q 737 158 654 -9 l 603 -9 q 569 142 545 269 q 521 396 504 511 q 455 393 397 263 q 339 133 271 -9 z"},"A":{"x_min":0,"x_max":711,"ha":711,"o":"m 186 235 q 225 236 263 237 q 302 238 339 238 q 377 238 414 237 q 451 236 485 235 l 414 604 z m -60 0 l -52 44 l 11 44 l 409 681 l 478 681 l 613 44 l 682 44 l 672 0 q 641 1 611 2 q 581 3 551 3 q 526 3 501 2 q 476 1 453 0 l 460 44 l 523 44 l 495 193 q 456 195 415 196 q 373 197 326 197 q 278 197 238 196 q 197 195 160 193 l 68 44 l 141 44 l 131 0 q 107 1 83 2 q 58 3 34 3 q 9 3 -14 2 q -37 1 -60 0 z"},"f":{"x_min":0,"x_max":319,"ha":319,"o":"m 149 39 l 222 39 l 215 0 q 187 1 159 2 q 131 3 103 3 q 76 3 49 2 q 22 1 -5 0 l 3 39 l 69 39 l 144 433 l 65 433 l 73 472 l 151 472 q 167 582 201 632 q 236 683 295 683 q 311 683 323 680 q 336 677 347 671 l 328 593 q 313 606 298 612 q 283 618 267 618 q 242 618 229 603 q 216 587 216 556 q 216 535 218 513 q 220 492 223 472 l 316 472 l 308 433 l 224 433 z"},"Q":{"x_min":0,"x_max":803,"ha":803,"o":"m 447 43 l 387 127 l 445 170 l 511 75 q 578 125 616 211 q 654 298 654 402 q 654 514 595 578 q 537 641 434 641 q 371 641 320 615 q 269 589 228 535 q 189 485 169 417 q 148 349 148 273 q 148 158 207 95 q 266 32 372 32 q 390 32 408 35 q 426 38 447 43 z m 475 4 q 449 -3 423 -6 q 396 -10 371 -10 q 225 -10 137 74 q 49 158 49 298 q 49 367 71 431 q 93 495 135 547 q 188 612 264 648 q 341 683 430 683 q 579 683 666 600 q 754 516 754 376 q 754 261 698 169 q 643 78 543 29 l 609 -64 l 553 -108 z"},"w":{"x_min":0,"x_max":757,"ha":757,"o":"m 174 -9 q 150 98 122 207 q 95 316 62 433 l 19 433 l 26 472 q 61 471 80 470 q 98 470 114 470 q 130 470 148 470 q 167 471 204 472 l 197 433 l 144 433 q 159 378 177 305 q 196 231 227 103 q 269 191 305 283 q 342 375 375 472 l 424 472 q 438 377 457 281 q 477 185 502 88 q 547 176 587 262 q 627 349 662 433 l 605 433 l 612 472 q 643 471 658 470 q 674 470 688 470 q 702 470 717 470 q 732 471 765 472 l 757 433 l 712 433 q 667 326 613 216 q 560 106 498 -9 l 448 -9 q 424 81 405 168 q 386 255 372 341 q 344 265 307 179 q 270 93 222 -9 z"},"-":{"x_min":0,"x_max":366,"ha":366,"o":"m 43 205 l 56 274 l 301 274 l 289 205 z"},"E":{"x_min":0,"x_max":602,"ha":602,"o":"m 14 0 l 23 44 l 82 44 l 196 630 l 123 630 l 131 674 q 187 672 242 672 q 296 671 351 671 q 406 671 460 672 q 515 672 569 674 l 542 536 l 486 536 l 503 623 l 283 623 l 234 371 l 433 371 l 445 431 l 501 431 l 467 253 l 410 253 l 424 326 l 225 326 l 172 51 l 433 51 l 452 143 l 507 143 l 480 0 q 422 1 363 2 q 304 3 246 3 q 188 3 130 2 q 72 1 14 0 z"},"s":{"x_min":0,"x_max":444,"ha":444,"o":"m 2 0 q 10 42 18 87 q 25 132 32 179 l 79 173 q 77 164 76 155 q 75 146 75 137 q 75 88 110 57 q 144 25 198 25 q 243 25 269 49 q 295 74 295 116 q 295 164 211 205 q 196 212 188 216 q 117 250 91 280 q 64 311 64 353 q 64 411 105 447 q 146 484 212 484 q 255 484 287 469 q 319 454 339 425 l 349 478 l 394 473 q 388 440 381 400 q 374 360 367 313 l 322 318 q 324 327 324 334 q 325 341 325 348 q 325 394 297 420 q 270 446 222 446 q 187 446 163 426 q 140 407 140 377 q 140 336 222 297 q 236 291 244 287 q 319 251 344 219 q 370 186 370 133 q 370 69 323 29 q 277 -12 202 -12 q 155 -12 118 5 q 82 22 59 55 l 48 -8 z"},">":{"x_min":0,"x_max":833,"ha":833,"o":"m 129 559 l 704 323 l 704 273 l 129 37 l 129 100 l 617 298 l 129 497 z"},"l":{"x_min":0,"x_max":292,"ha":292,"o":"m 169 634 l 90 634 l 98 674 q 106 673 115 673 q 123 673 140 673 q 171 673 200 676 q 229 678 257 683 l 138 39 l 214 39 l 207 0 q 179 1 150 2 q 121 3 92 3 q 63 3 35 2 q 6 1 -22 0 l -15 39 l 59 39 z"},"8":{"x_min":0,"x_max":542,"ha":542,"o":"m 133 142 q 133 88 159 58 q 185 29 232 29 q 288 29 324 80 q 361 132 361 212 q 361 268 335 300 q 309 331 262 331 q 204 331 168 279 q 133 227 133 142 z m 202 475 q 202 425 225 399 q 248 372 291 372 q 340 372 372 414 q 404 457 404 522 q 404 577 380 605 q 357 634 311 634 q 262 634 232 590 q 202 546 202 475 z m 219 357 q 169 378 143 414 q 116 450 116 495 q 116 573 172 622 q 227 671 316 671 q 394 671 443 627 q 491 583 491 514 q 491 447 449 404 q 407 360 332 348 q 390 329 421 287 q 451 246 451 188 q 451 100 391 45 q 332 -9 234 -9 q 147 -9 95 40 q 42 89 42 170 q 42 244 90 294 q 137 344 219 357 z"},"\\":{"x_min":0,"x_max":287,"ha":287,"o":"m 27 683 l 86 683 l 280 -93 l 220 -93 z"},"e":{"x_min":0,"x_max":525,"ha":525,"o":"m 121 234 l 401 300 q 401 366 370 405 q 340 444 288 444 q 221 444 177 389 q 133 334 121 234 z m 447 95 q 407 42 353 15 q 300 -12 235 -12 q 143 -12 86 47 q 29 106 29 202 q 29 259 48 311 q 67 362 103 401 q 139 440 187 462 q 234 484 285 484 q 381 484 434 430 q 486 377 488 278 l 118 192 q 120 116 156 77 q 192 37 259 37 q 304 37 343 58 q 381 79 417 122 z"},"b":{"x_min":0,"x_max":567,"ha":567,"o":"m 152 632 l 84 632 l 91 671 q 128 671 165 674 q 203 677 240 683 l 188 397 q 223 441 264 463 q 305 484 355 484 q 431 484 475 433 q 519 383 519 295 q 519 232 496 171 q 472 110 429 63 q 397 28 353 8 q 309 -12 262 -12 q 212 -12 174 10 q 135 32 112 75 l 60 -10 l 27 3 q 40 49 51 92 q 61 134 68 172 z m 170 294 l 148 181 q 146 172 145 162 q 144 151 144 140 q 144 90 172 60 q 200 31 247 31 q 279 31 307 47 q 336 62 359 93 q 391 135 410 190 q 428 246 428 300 q 428 364 398 400 q 369 437 318 437 q 271 437 226 394 q 181 350 170 294 z"},"%":{"x_min":0,"x_max":799,"ha":799,"o":"m 596 0 q 535 0 496 39 q 458 79 458 141 q 458 216 508 269 q 557 321 628 321 q 689 321 728 282 q 766 243 766 181 q 766 106 716 53 q 667 0 596 0 z m 593 29 q 640 29 670 76 q 700 123 700 196 q 700 243 682 268 q 665 292 630 292 q 585 292 554 247 q 524 201 524 135 q 524 80 541 54 q 557 29 593 29 z m 168 369 q 214 369 244 417 q 274 464 274 536 q 274 583 256 607 q 239 632 205 632 q 159 632 129 585 q 98 539 98 468 q 98 421 115 397 q 133 372 168 369 z m 170 340 q 109 340 71 379 q 32 418 32 481 q 32 556 82 609 q 132 661 203 661 q 264 661 302 622 q 340 583 340 521 q 340 446 290 393 q 240 340 170 340 z m 133 -33 l 619 694 l 663 694 l 177 -33 z"},"m":{"x_min":0,"x_max":870,"ha":870,"o":"m -5 0 l 3 39 l 64 39 l 140 433 l 79 433 l 87 472 q 122 472 158 475 q 194 478 231 484 l 214 399 q 262 445 300 465 q 337 484 378 484 q 423 484 451 460 q 479 437 484 394 q 533 441 576 462 q 618 484 661 484 q 712 484 745 452 q 777 420 777 370 q 777 357 775 343 q 773 329 770 315 l 717 105 q 713 90 711 77 q 709 64 709 55 q 709 44 715 39 q 721 33 733 33 q 744 33 758 42 q 772 50 792 69 l 812 40 q 788 15 758 1 q 729 -12 698 -12 q 664 -12 646 4 q 627 21 627 50 q 627 64 635 101 l 636 104 l 682 289 q 688 314 692 334 q 695 355 695 370 q 695 398 678 414 q 662 430 632 430 q 576 430 531 388 q 486 346 473 278 l 427 39 l 488 39 l 480 0 q 454 1 428 2 q 402 3 376 3 q 350 3 325 2 q 301 1 277 0 l 285 39 l 346 39 l 396 291 q 401 316 404 339 q 407 362 407 378 q 407 402 390 416 q 373 430 343 430 q 323 430 299 419 q 274 408 251 388 q 226 366 212 343 q 199 320 191 278 l 144 39 l 206 39 l 198 0 q 172 1 146 2 q 120 3 94 3 q 68 3 43 2 q 19 1 -5 0 z"},"#":{"x_min":0,"x_max":769,"ha":769,"o":"m 342 424 l 293 284 l 434 284 l 484 424 z m 380 711 l 445 711 l 363 481 l 503 481 l 585 711 l 649 711 l 568 481 l 718 481 l 698 424 l 547 424 l 498 284 l 660 284 l 639 228 l 478 228 l 397 -1 l 332 -1 l 413 228 l 273 228 l 192 -1 l 128 -1 l 209 228 l 51 228 l 72 284 l 229 284 l 278 424 l 108 424 l 129 481 l 299 481 z"},",":{"x_min":0,"x_max":271,"ha":271,"o":"m -13 -120 q 21 -49 41 8 q 60 64 67 111 l 161 111 q 148 60 118 3 q 87 -53 37 -120 z"},"n":{"x_min":0,"x_max":604,"ha":604,"o":"m -5 0 l 3 39 l 64 39 l 140 433 l 79 433 l 87 472 q 122 472 158 475 q 194 478 231 484 l 214 399 q 258 444 300 464 q 341 484 389 484 q 445 484 478 453 q 511 422 511 370 q 511 359 509 345 q 507 332 503 315 l 451 105 q 447 88 444 75 q 442 62 442 55 q 442 44 448 39 q 455 33 467 33 q 478 33 492 42 q 506 50 526 69 l 546 40 q 521 15 492 1 q 462 -12 432 -12 q 398 -12 379 4 q 361 21 361 50 q 361 64 370 102 l 370 104 l 416 289 q 422 314 426 335 q 429 356 429 370 q 429 399 410 416 q 392 432 358 432 q 298 432 251 389 q 205 347 191 278 l 144 39 l 206 39 l 198 0 q 172 1 146 2 q 120 3 94 3 q 68 3 43 2 q 19 1 -5 0 z"},"h":{"x_min":0,"x_max":597,"ha":597,"o":"m -12 0 l -4 39 l 57 39 l 168 632 l 100 632 l 107 671 q 144 671 181 674 q 218 677 255 683 l 207 399 q 251 444 292 464 q 333 484 381 484 q 438 484 470 453 q 503 422 503 370 q 503 357 502 344 q 500 330 497 315 l 443 105 q 439 90 438 77 q 436 64 436 55 q 436 44 441 39 q 447 33 459 33 q 471 33 485 42 q 499 50 519 69 l 539 40 q 514 15 485 1 q 455 -12 424 -12 q 391 -12 372 4 q 354 21 354 50 q 354 64 362 101 l 362 104 l 409 289 q 415 314 418 335 q 421 356 421 370 q 421 399 403 416 q 384 432 351 432 q 291 432 244 389 q 197 347 184 278 l 137 39 l 199 39 l 190 0 q 165 1 138 2 q 112 3 86 3 q 61 3 36 2 q 11 1 -12 0 z"},"z":{"x_min":0,"x_max":468,"ha":468,"o":"m 3 0 l -1 6 l 316 433 l 123 433 l 104 332 l 52 332 q 64 390 70 420 q 76 450 80 476 q 100 474 122 472 q 144 471 172 471 q 186 471 212 472 q 238 472 252 472 q 265 472 292 472 q 318 471 331 471 q 359 471 382 472 q 404 474 424 476 l 428 465 l 127 39 l 341 39 l 360 143 l 412 143 q 402 97 395 63 q 389 29 384 0 q 329 2 281 4 q 234 5 191 5 q 148 5 102 4 q 56 2 3 0 z"},"B":{"x_min":0,"x_max":646,"ha":646,"o":"m 168 44 l 274 44 q 377 44 422 83 q 468 121 468 207 q 468 271 430 301 q 392 330 307 330 l 224 330 z m 231 371 l 296 371 q 389 371 437 409 q 484 446 484 521 q 484 577 451 604 q 419 630 350 630 l 282 630 z m 14 0 l 23 44 l 82 44 l 196 630 l 123 630 l 131 674 q 150 673 172 673 q 193 673 232 673 q 266 673 312 673 q 359 674 372 674 q 474 674 525 636 q 576 598 576 522 q 576 462 534 419 q 493 375 414 354 q 489 340 526 300 q 563 260 563 193 q 563 97 494 49 q 424 0 287 0 q 271 0 218 1 q 165 2 127 2 q 83 2 60 1 q 36 1 14 0 z"},"K":{"x_min":0,"x_max":681,"ha":681,"o":"m 222 319 q 340 406 424 481 q 507 555 571 629 l 506 629 l 515 673 q 540 671 563 671 q 587 670 612 670 q 636 670 660 671 q 684 671 708 673 l 700 629 l 633 629 q 587 573 530 517 q 473 461 395 398 l 598 44 l 669 44 l 660 0 q 629 1 599 2 q 569 3 539 3 q 509 3 479 2 q 450 1 421 0 l 429 44 l 495 44 l 327 343 q 303 324 275 303 q 248 283 209 255 l 170 44 l 240 44 l 232 0 q 204 1 177 2 q 150 3 122 3 q 95 3 68 2 q 41 1 14 0 l 23 44 l 82 44 l 196 630 l 123 630 l 131 674 q 159 672 187 672 q 215 671 243 671 q 271 671 300 672 q 329 672 358 674 l 350 630 l 283 630 z"},"R":{"x_min":0,"x_max":637,"ha":637,"o":"m 229 352 q 258 351 277 350 q 297 349 308 349 q 396 349 442 390 q 487 431 487 512 q 487 577 451 604 q 415 630 316 630 l 283 630 z m 170 44 l 240 44 l 232 0 q 204 1 177 2 q 150 3 122 3 q 95 3 68 2 q 41 1 14 0 l 23 44 l 82 44 l 196 630 l 123 630 l 131 674 q 148 673 167 672 q 187 672 221 672 q 251 672 291 673 q 331 674 340 674 q 462 674 521 631 q 580 589 580 501 q 580 420 523 370 q 467 319 369 314 q 411 299 430 270 q 449 240 456 174 q 458 158 460 130 q 467 44 498 44 q 510 44 523 52 q 537 60 551 77 l 575 44 q 550 18 521 4 q 492 -10 462 -10 q 438 -10 421 0 q 403 9 391 28 q 376 51 371 123 q 368 166 365 190 q 355 260 331 283 q 307 307 244 307 l 220 307 z"},"T":{"x_min":0,"x_max":581,"ha":581,"o":"m 105 0 l 114 44 l 192 44 l 305 625 l 128 625 l 106 508 l 48 508 l 80 676 q 109 675 143 674 q 176 674 244 674 l 354 674 l 465 674 q 535 674 570 674 q 604 675 634 676 l 602 508 l 545 508 l 568 625 l 391 625 l 278 44 l 356 44 l 347 0 q 299 1 274 1 q 248 2 226 2 q 187 2 108 0 z"},"P":{"x_min":0,"x_max":588,"ha":588,"o":"m 221 313 l 224 312 q 263 309 281 309 q 379 309 426 356 q 473 402 473 501 q 473 569 442 599 q 410 629 338 629 l 282 629 z m 170 44 l 247 44 l 239 0 q 212 1 184 2 q 155 3 127 3 q 99 3 71 2 q 42 1 14 0 l 23 44 l 82 44 l 196 630 l 123 630 l 131 674 q 159 672 185 672 q 210 671 231 671 q 257 671 291 672 q 325 673 332 673 q 454 673 511 629 q 568 584 568 491 q 568 385 495 325 q 421 266 289 266 q 272 266 253 267 q 233 268 212 269 z"},"|":{"x_min":0,"x_max":500,"ha":500,"o":"m 219 764 l 281 764 l 281 -236 l 219 -236 z"},"t":{"x_min":0,"x_max":301,"ha":301,"o":"m 202 433 l 138 106 q 137 98 136 87 q 135 77 135 66 q 135 51 140 46 q 145 40 158 40 q 169 40 190 51 q 210 62 237 82 l 256 53 q 218 21 182 4 q 146 -12 113 -12 q 82 -12 66 5 q 51 21 51 55 q 51 64 58 100 l 58 103 l 122 433 l 55 433 l 62 472 l 129 472 l 157 614 l 241 632 l 210 472 l 294 472 l 286 433 z"},"M":{"x_min":0,"x_max":986,"ha":986,"o":"m 1 0 l 8 44 l 76 44 l 212 630 l 132 630 l 142 674 q 154 673 168 673 q 183 673 212 673 q 244 673 260 673 q 277 673 292 674 q 348 562 396 455 q 445 348 484 247 q 570 377 639 479 q 707 580 773 674 q 783 674 806 673 q 829 673 841 673 q 854 673 882 673 q 910 674 926 674 l 918 630 l 849 630 l 844 44 l 918 44 l 909 0 q 867 1 843 1 q 820 2 799 2 q 764 2 688 0 l 686 0 l 693 44 l 761 44 l 765 573 q 691 472 614 357 q 537 242 458 115 l 443 115 q 394 249 344 365 q 294 480 248 571 l 125 44 l 196 44 l 188 0 q 175 0 157 1 q 140 1 102 1 q 62 1 41 1 q 19 0 1 0 z"},"g":{"x_min":0,"x_max":583,"ha":583,"o":"m 437 472 q 452 471 467 470 q 482 469 498 469 q 514 469 530 470 q 546 471 561 472 l 553 431 l 507 431 l 432 41 q 405 -98 351 -159 q 296 -220 200 -220 q 141 -220 95 -197 q 50 -174 21 -129 l 91 -71 q 109 -125 140 -153 q 171 -180 214 -180 q 266 -180 295 -138 q 324 -97 347 16 l 358 71 q 323 28 283 8 q 243 -12 194 -12 q 118 -12 74 38 q 30 89 30 177 q 30 239 54 300 q 78 361 121 410 q 152 445 196 464 q 239 484 286 484 q 335 484 370 461 q 404 439 420 397 z m 379 178 l 402 300 q 403 308 404 314 q 405 321 405 328 q 405 376 375 409 q 345 441 299 441 q 268 441 240 426 q 212 410 189 380 q 157 338 139 283 q 120 227 120 173 q 120 109 150 72 q 180 35 231 35 q 278 35 323 79 q 369 122 379 178 z"},"j":{"x_min":0,"x_max":269,"ha":269,"o":"m 192 578 q 171 578 159 591 q 147 603 147 624 q 147 650 161 667 q 175 683 198 683 q 219 683 231 671 q 243 659 243 637 q 243 611 229 594 q 214 578 192 578 z m 117 -34 q 98 -132 61 -176 q 24 -220 -39 -220 q -43 -220 -50 -220 q -56 -219 -68 -218 l -62 -190 q -60 -190 -57 -191 q -54 -191 -49 -191 q -15 -191 5 -154 q 25 -116 46 -7 l 129 433 l 54 433 l 62 472 l 78 472 q 114 472 149 475 q 185 478 220 484 z"},"i":{"x_min":0,"x_max":306,"ha":306,"o":"m 205 578 q 184 578 172 591 q 160 603 160 624 q 160 650 174 667 q 189 683 211 683 q 232 683 244 671 q 256 659 256 637 q 256 611 242 594 q 227 578 205 578 z m 146 39 l 224 39 l 215 0 q 186 1 157 2 q 129 3 100 3 q 71 3 43 2 q 15 1 -13 0 l -6 39 l 66 39 l 143 433 l 67 433 l 76 472 l 91 472 q 127 472 163 475 q 198 478 233 484 z"},"y":{"x_min":0,"x_max":514,"ha":514,"o":"m 204 5 q 159 134 119 239 q 80 343 42 433 l -8 433 l 0 474 q 9 473 21 473 q 32 472 55 472 l 93 472 l 132 472 q 157 472 169 473 q 182 473 192 474 l 184 433 l 129 433 q 167 337 197 254 q 228 170 253 94 q 296 177 338 262 q 380 347 421 433 l 359 433 l 366 474 q 375 473 384 473 q 394 472 413 472 l 446 472 l 480 472 q 501 472 511 473 q 522 473 531 474 l 523 433 l 473 433 q 393 270 315 118 q 238 -33 163 -174 l 225 -174 l 218 -213 l 215 -213 q 154 -211 125 -211 q 109 -211 91 -211 q 73 -212 39 -213 l 47 -174 l 112 -174 q 138 -126 161 -81 q 184 -37 204 5 z"},"@":{"x_min":0,"x_max":986,"ha":986,"o":"m 581 164 q 551 112 513 87 q 476 61 430 61 q 369 61 332 106 q 295 151 295 225 q 295 278 319 331 q 343 383 386 425 q 418 456 457 474 q 495 491 532 491 q 575 491 602 467 q 629 443 640 396 l 666 484 l 736 484 l 653 186 q 653 185 652 184 q 644 155 644 133 q 644 110 656 96 q 669 83 690 83 q 707 83 729 92 q 750 100 770 115 q 830 159 861 228 q 893 297 893 382 q 893 450 869 505 q 844 560 794 604 q 750 643 688 664 q 627 685 558 685 q 467 685 391 656 q 316 628 257 571 q 193 509 161 427 q 128 346 128 247 q 128 162 156 98 q 184 35 244 -16 q 300 -63 372 -88 q 443 -112 528 -112 q 607 -112 683 -86 q 758 -61 827 -11 l 842 -29 q 770 -83 689 -110 q 608 -137 522 -137 q 431 -137 355 -115 q 279 -92 221 -47 q 147 8 109 87 q 71 166 71 262 q 71 362 113 448 q 155 535 235 601 q 299 655 377 682 q 455 709 545 709 q 714 709 815 618 q 916 526 916 374 q 916 297 888 229 q 859 161 808 114 q 780 88 748 75 q 715 61 682 61 q 635 61 609 87 q 584 112 581 164 z m 536 471 q 510 471 488 456 q 466 441 443 407 q 408 354 387 293 q 366 231 366 183 q 366 138 386 111 q 406 85 439 85 q 471 85 500 107 q 530 128 557 172 q 585 218 602 271 q 618 324 618 367 q 618 413 595 442 q 572 471 536 471 z"},".":{"x_min":0,"x_max":271,"ha":271,"o":"m 102 -6 q 83 -6 70 7 q 57 19 57 38 q 57 68 73 88 q 89 108 112 108 q 131 108 143 95 q 156 82 156 62 q 156 33 140 13 q 125 -6 102 -6 z"},"p":{"x_min":0,"x_max":567,"ha":567,"o":"m 180 294 l 157 173 q 155 165 155 158 q 154 151 154 145 q 154 96 184 63 q 214 31 260 31 q 291 31 319 47 q 347 62 370 93 q 401 134 420 190 q 438 245 438 300 q 438 364 408 400 q 379 437 328 437 q 281 437 236 394 q 190 350 180 294 z m 127 433 l 58 433 l 66 472 q 103 472 139 475 q 176 478 214 484 l 200 400 q 233 442 274 463 q 314 484 365 484 q 441 484 485 433 q 529 383 529 295 q 529 233 505 172 q 481 112 438 63 q 406 28 363 8 q 319 -12 273 -12 q 224 -12 189 10 q 155 33 139 75 l 115 -39 q 106 -81 99 -114 q 91 -146 84 -174 l 149 -174 l 142 -213 q 124 -211 105 -211 q 86 -210 68 -210 q 50 -210 31 -211 q 12 -211 -8 -213 q 9 -148 26 -74 q 43 0 61 94 z"},"X":{"x_min":0,"x_max":657,"ha":657,"o":"m 388 0 l 396 44 l 466 44 l 318 294 l 102 44 l 176 44 l 168 0 l 165 0 q 98 2 66 2 q 48 2 27 1 q 7 1 -30 0 l -22 44 l 40 44 l 293 336 l 119 630 l 45 630 l 53 676 q 65 675 80 674 q 94 674 124 674 l 173 674 l 223 674 q 254 674 270 674 q 286 675 300 676 l 291 630 l 218 630 l 352 399 l 550 630 l 475 630 l 484 676 q 495 675 507 674 q 520 674 545 674 l 585 674 l 625 674 q 649 674 662 674 q 674 675 685 676 l 676 630 l 611 630 l 377 359 l 564 44 l 628 44 l 620 0 q 601 1 577 1 q 554 2 507 2 q 459 2 434 1 q 410 1 388 0 z"},"*":{"x_min":0,"x_max":426,"ha":426,"o":"m 236 374 l 199 468 l 104 455 l 163 531 l 103 607 l 200 591 l 237 683 l 274 589 l 371 612 l 307 526 l 365 448 l 269 465 z"},"Y":{"x_min":0,"x_max":579,"ha":579,"o":"m 110 0 l 118 44 l 194 44 l 238 272 l 68 630 l 5 630 l 14 674 q 33 673 56 673 q 79 673 125 673 q 172 673 197 673 q 221 673 242 674 l 233 630 l 163 630 l 310 330 q 370 402 427 477 q 483 552 537 630 l 463 630 l 471 674 q 487 673 506 673 q 525 673 563 673 q 603 673 623 673 q 644 673 661 674 l 653 630 l 596 630 q 533 538 466 451 q 399 364 328 281 l 281 44 l 358 44 l 349 0 q 328 1 303 1 q 279 2 230 2 q 181 2 156 1 q 131 1 110 0 z"},"c":{"x_min":0,"x_max":486,"ha":486,"o":"m 428 84 q 386 37 336 12 q 285 -12 230 -12 q 138 -12 83 42 q 28 96 28 186 q 28 256 56 317 q 83 378 136 425 q 169 455 208 469 q 247 484 291 484 q 328 484 355 471 q 382 458 396 432 l 407 484 l 454 477 l 419 296 l 372 306 q 377 328 380 342 q 382 356 382 369 q 382 402 359 422 q 337 443 300 443 q 225 443 172 369 q 119 294 119 184 q 119 115 153 76 q 187 36 245 36 q 284 36 321 55 q 358 74 401 116 z"},"!":{"x_min":0,"x_max":310,"ha":310,"o":"m 104 176 q 126 297 141 422 q 155 546 161 674 l 260 674 q 246 565 215 442 q 184 318 136 176 z m 92 -6 q 73 -6 60 6 q 48 19 48 38 q 48 68 64 88 q 80 108 103 108 q 122 108 135 95 q 147 82 147 62 q 147 33 131 13 q 115 -6 92 -6 z"},"/":{"x_min":0,"x_max":287,"ha":287,"o":"m -42 -93 l 241 683 l 300 683 l 18 -93 z"},"[":{"x_min":0,"x_max":352,"ha":352,"o":"m 35 -149 l 202 712 q 214 712 239 711 q 263 711 276 711 q 289 711 314 711 q 339 712 352 712 l 345 675 l 277 675 l 125 -112 l 213 -112 l 206 -149 q 193 -148 178 -148 q 163 -148 128 -148 q 92 -148 73 -148 q 53 -148 35 -149 z"},"6":{"x_min":0,"x_max":542,"ha":542,"o":"m 127 181 q 127 110 157 70 q 188 30 240 30 q 307 30 351 104 q 395 178 395 292 q 395 353 366 387 q 337 422 286 422 q 221 422 174 353 q 127 283 127 181 z m 167 404 q 197 434 232 448 q 266 463 305 463 q 385 463 435 406 q 484 349 484 255 q 484 141 414 66 q 344 -9 238 -9 q 149 -9 99 56 q 50 121 50 238 q 50 323 72 403 q 93 484 133 547 q 172 609 224 640 q 275 671 341 671 q 407 671 447 639 q 487 607 495 549 l 412 538 l 412 545 q 412 585 389 608 q 367 632 328 632 q 270 632 229 575 q 189 518 167 404 z"},"r":{"x_min":0,"x_max":358,"ha":358,"o":"m 204 390 q 252 444 282 464 q 312 484 343 484 q 355 484 365 482 q 375 481 384 478 l 359 392 q 344 399 330 402 q 316 406 304 406 q 259 406 231 375 q 203 343 191 278 l 144 39 l 214 39 l 206 0 q 179 1 152 2 q 125 3 98 3 q 72 3 46 2 q 21 1 -5 0 l 3 39 l 64 39 l 140 433 l 79 433 l 87 472 l 99 472 q 126 472 157 475 q 188 478 227 484 z"},"2":{"x_min":0,"x_max":542,"ha":542,"o":"m 15 0 q 25 74 58 132 q 90 190 155 247 q 179 268 241 310 q 304 352 329 382 q 354 411 366 442 q 378 473 378 506 q 378 562 346 598 q 314 633 263 633 q 215 633 185 606 q 155 580 155 539 q 155 524 160 509 q 165 494 174 477 l 98 440 q 89 453 84 469 q 80 484 80 503 q 80 577 132 624 q 185 671 267 671 q 357 671 413 622 q 468 573 468 493 q 468 429 430 381 q 392 332 288 273 q 191 217 145 172 q 98 126 73 67 l 368 67 l 384 151 l 438 151 l 409 0 z"},"{":{"x_min":0,"x_max":500,"ha":500,"o":"m 413 740 l 413 715 q 344 714 318 688 q 293 662 293 586 l 293 516 q 293 406 263 365 q 233 325 153 310 q 233 295 263 255 q 293 214 293 104 l 293 34 q 293 -42 318 -68 q 343 -93 413 -94 l 413 -119 l 408 -119 q 302 -119 263 -83 q 223 -47 223 50 l 223 154 q 223 231 194 260 q 166 290 86 296 l 86 325 q 167 333 195 361 q 223 390 223 467 l 223 571 q 223 668 263 704 q 302 740 408 740 z"},"9":{"x_min":0,"x_max":542,"ha":542,"o":"m 304 632 q 235 632 190 560 q 145 488 145 377 q 145 312 174 276 q 202 240 255 240 q 320 240 367 309 q 413 378 413 481 q 413 551 384 591 q 354 632 304 632 z m 373 258 q 343 229 308 214 q 273 199 235 199 q 155 199 105 256 q 56 313 56 407 q 56 521 126 596 q 196 671 302 671 q 391 671 441 606 q 490 542 490 424 q 490 339 469 258 q 447 178 407 115 q 367 52 316 22 q 265 -9 200 -9 q 133 -9 93 23 q 52 55 45 113 l 128 124 l 128 117 q 128 77 151 53 q 173 30 212 30 q 271 30 311 87 q 351 144 373 258 z"}," ":{"x_min":0,"x_max":271,"ha":271,"o":""},"I":{"x_min":0,"x_max":366,"ha":366,"o":"m 195 630 l 123 630 l 130 674 q 159 672 187 672 q 214 671 243 671 q 271 671 299 672 q 328 672 357 674 l 350 630 l 283 630 l 169 44 l 244 44 l 234 0 q 208 1 180 2 q 151 3 123 3 q 94 3 65 2 q 36 1 8 0 l 17 44 l 83 44 z"},"H":{"x_min":0,"x_max":803,"ha":803,"o":"m 170 44 l 240 44 l 232 0 q 204 1 177 2 q 150 3 122 3 q 95 3 68 2 q 41 1 14 0 l 23 44 l 82 44 l 196 630 l 123 630 l 131 674 q 159 672 187 672 q 215 671 243 671 q 271 671 300 672 q 329 672 358 674 l 350 630 l 283 630 l 240 398 q 290 400 332 402 q 374 403 413 403 q 453 403 496 402 q 539 400 589 398 l 634 630 l 564 630 l 572 674 q 599 672 625 672 q 651 671 678 671 q 705 671 732 672 q 760 672 789 674 l 781 630 l 721 630 l 608 44 l 681 44 l 672 0 q 645 1 617 2 q 590 3 561 3 q 532 3 504 2 q 475 1 446 0 l 454 44 l 520 44 l 581 356 q 538 359 495 360 q 451 362 407 362 q 364 362 320 360 q 276 359 232 356 z"},"4":{"x_min":0,"x_max":542,"ha":542,"o":"m 99 241 l 306 241 l 369 568 q 278 459 215 384 q 152 308 99 241 z m 189 0 l 197 42 l 266 42 l 294 186 l 156 186 q 127 186 93 184 q 58 183 11 179 l 7 195 q 100 304 200 423 q 300 542 405 671 l 467 671 l 384 241 l 475 241 l 463 186 l 372 186 l 344 42 l 420 42 l 412 0 l 406 0 q 332 2 296 2 q 276 2 254 2 q 232 1 189 0 z"},"~":{"x_min":0,"x_max":833,"ha":833,"o":"m 747 370 l 747 306 q 698 271 651 253 q 604 236 558 236 q 537 236 514 240 q 491 245 465 253 q 450 258 422 268 q 324 303 275 303 q 234 303 190 285 q 146 267 87 225 l 87 290 q 138 326 186 343 q 233 361 276 361 q 303 361 333 355 q 362 349 418 329 q 424 327 435 323 q 515 294 559 294 q 601 294 645 312 q 689 330 747 370 z"},"D":{"x_min":0,"x_max":740,"ha":740,"o":"m 169 44 l 306 44 q 370 44 412 61 q 455 77 494 116 q 537 159 564 238 q 591 317 591 404 q 591 520 541 575 q 491 630 386 630 l 284 630 z m 9 0 l 18 44 l 82 44 l 196 630 l 123 630 l 131 674 q 135 674 143 674 q 205 672 231 672 q 265 672 310 673 q 356 674 368 674 q 438 674 477 667 q 516 660 548 644 q 617 610 654 542 q 691 474 691 382 q 691 292 659 216 q 628 140 568 85 q 518 39 456 20 q 394 0 282 0 q 268 0 216 1 q 164 2 125 2 q 94 2 23 0 q 14 0 9 0 z"},"^":{"x_min":0,"x_max":1000,"ha":1000,"o":"m 456 714 l 543 714 l 797 438 l 752 438 l 499 651 l 245 438 l 201 438 z"},"0":{"x_min":0,"x_max":542,"ha":542,"o":"m 222 28 q 260 28 292 58 q 324 88 347 145 q 377 219 394 303 q 411 388 411 464 q 411 546 387 590 q 362 634 317 634 q 280 634 248 604 q 216 573 193 516 q 163 441 145 357 q 128 272 128 197 q 128 115 152 72 q 177 28 222 28 z m 225 -9 q 140 -9 92 61 q 43 130 43 254 q 43 346 68 428 q 92 510 139 573 q 175 621 220 646 q 265 671 316 671 q 401 671 449 601 q 498 530 498 406 q 498 315 473 234 q 449 152 402 89 q 366 41 321 16 q 276 -9 225 -9 z"},"F":{"x_min":0,"x_max":582,"ha":582,"o":"m 14 0 l 23 44 l 82 44 l 196 630 l 123 630 l 131 674 q 186 672 241 672 q 297 671 352 671 q 407 671 463 672 q 519 672 575 674 l 548 536 l 491 536 l 508 623 l 283 623 l 234 371 l 448 371 l 459 431 l 516 431 l 482 253 l 425 253 l 439 326 l 225 326 l 172 44 l 244 44 l 235 0 q 208 1 179 2 q 151 3 123 3 q 96 3 68 2 q 41 1 14 0 z"},"`":{"x_min":0,"x_max":500,"ha":500,"o":"m 368 538 l 319 538 l 179 708 l 261 708 z"},"k":{"x_min":0,"x_max":528,"ha":528,"o":"m 137 39 l 199 39 l 190 0 q 165 1 138 2 q 112 3 86 3 q 61 3 36 2 q 11 1 -12 0 l -4 39 l 57 39 l 168 632 l 100 632 l 107 671 q 144 671 181 674 q 218 677 255 683 l 175 248 q 249 288 308 334 q 368 381 411 433 l 352 433 l 359 472 q 396 471 413 470 q 431 470 445 470 q 460 470 477 470 q 494 471 527 472 l 520 433 l 474 433 q 424 389 376 351 q 328 313 279 280 q 281 280 282 280 q 302 282 310 282 q 361 282 380 252 q 399 221 399 94 l 399 79 q 399 52 407 41 q 414 29 431 29 q 437 29 445 32 q 453 36 470 45 l 478 20 q 455 4 432 -4 q 410 -12 389 -12 q 352 -12 339 9 q 326 30 326 111 l 326 145 q 326 201 312 224 q 299 246 269 246 q 253 246 233 238 q 213 229 167 203 z"},"u":{"x_min":0,"x_max":602,"ha":602,"o":"m 436 432 l 375 432 l 382 472 q 417 472 454 475 q 491 478 527 484 l 452 104 q 449 86 448 78 q 447 70 447 64 q 447 47 453 40 q 458 33 473 33 q 480 33 493 38 q 505 43 530 57 l 530 17 q 500 2 476 -5 q 452 -12 433 -12 q 401 -12 386 4 q 370 20 370 53 q 370 58 370 63 q 371 68 372 79 q 325 30 283 9 q 240 -12 191 -12 q 135 -12 102 19 q 69 49 69 100 q 69 109 71 124 q 73 138 76 156 l 131 432 l 70 432 l 78 472 q 113 472 149 475 q 185 478 222 484 l 164 183 q 159 156 156 135 q 154 115 154 103 q 154 72 171 56 q 188 40 221 40 q 281 40 328 82 q 375 125 389 193 z"},"]":{"x_min":0,"x_max":352,"ha":352,"o":"m 295 712 l 128 -149 q 115 -148 100 -148 q 85 -148 55 -148 q 23 -148 8 -148 q -8 -148 -22 -149 l -15 -112 l 53 -112 l 205 675 l 116 675 l 124 712 q 135 712 161 711 q 187 711 201 711 q 215 711 246 711 q 277 712 295 712 z"},"U":{"x_min":0,"x_max":785,"ha":785,"o":"m 178 630 l 101 630 l 109 674 q 139 672 169 672 q 198 671 227 671 q 256 671 285 672 q 314 672 344 674 l 336 630 l 265 630 l 196 273 q 190 242 188 222 q 185 202 185 189 q 185 114 235 73 q 285 31 375 31 q 476 31 527 87 q 579 143 604 287 l 665 630 l 592 630 l 601 674 q 635 673 653 672 q 671 672 687 672 q 702 672 721 672 q 740 673 778 674 l 770 630 l 715 630 l 655 294 q 640 209 623 162 q 607 116 583 83 q 549 37 492 14 q 436 -9 356 -9 q 236 -9 167 44 q 99 98 99 191 q 99 208 102 230 q 105 253 112 288 z"},"o":{"x_min":0,"x_max":537,"ha":537,"o":"m 223 26 q 245 26 265 34 q 285 42 303 57 q 346 95 371 162 q 397 229 397 303 q 397 373 370 409 q 343 446 292 446 q 262 446 234 430 q 207 415 185 385 q 153 342 136 285 q 119 229 119 168 q 119 98 146 62 q 172 26 223 26 z m 226 -12 q 139 -12 84 48 q 29 108 29 204 q 29 256 47 306 q 65 355 99 395 q 137 438 185 461 q 234 484 290 484 q 376 484 432 425 q 487 365 487 272 q 487 153 411 70 q 335 -12 226 -12 z"},"N":{"x_min":0,"x_max":799,"ha":799,"o":"m 0 0 l 8 44 l 74 44 l 187 630 l 115 630 l 123 674 q 135 673 150 673 q 165 673 193 673 q 222 673 235 673 q 249 673 261 674 l 583 120 l 683 630 l 612 630 l 622 674 q 656 673 675 672 q 694 672 710 672 q 726 672 745 672 q 765 673 802 674 l 794 630 l 730 630 l 607 -6 l 547 -6 q 535 26 515 65 q 495 104 459 164 l 224 567 l 122 44 l 189 44 l 180 0 q 145 1 125 1 q 106 2 89 2 q 73 2 55 2 q 37 1 0 0 z"},"+":{"x_min":0,"x_max":833,"ha":833,"o":"m 388 596 l 446 596 l 446 327 l 709 327 l 709 270 l 446 270 l 446 0 l 388 0 l 388 270 l 124 270 l 124 327 l 388 327 z"},"G":{"x_min":0,"x_max":778,"ha":778,"o":"m 615 0 l 592 65 q 537 28 480 10 q 423 -9 363 -9 q 220 -9 134 74 q 48 157 48 294 q 48 370 73 439 q 99 508 147 562 q 200 621 274 652 q 349 683 437 683 q 504 683 556 665 q 609 646 650 608 l 662 674 l 717 674 q 708 637 698 591 q 689 545 681 491 l 629 491 l 630 510 l 630 517 q 630 569 576 605 q 522 641 441 641 q 382 641 338 624 q 293 607 258 571 q 207 519 177 442 q 147 365 147 284 q 147 167 207 100 q 267 32 371 32 q 463 32 527 74 q 590 115 604 184 l 628 308 l 439 308 l 449 359 l 725 359 l 655 0 z"},"q":{"x_min":0,"x_max":583,"ha":583,"o":"m 437 472 q 452 471 467 470 q 482 469 498 469 q 514 469 530 470 q 546 471 561 472 l 553 431 l 507 431 l 390 -174 l 451 -174 l 444 -213 q 417 -211 391 -211 q 365 -210 340 -210 q 315 -210 290 -211 q 265 -211 241 -213 l 248 -174 l 309 -174 l 358 71 q 323 28 283 8 q 243 -12 194 -12 q 118 -12 74 38 q 30 89 30 177 q 30 239 54 300 q 78 361 121 410 q 152 445 196 464 q 239 484 286 484 q 335 484 370 461 q 404 439 420 397 z m 379 178 l 402 300 q 403 308 404 314 q 405 321 405 328 q 405 376 375 409 q 345 441 299 441 q 268 441 240 426 q 212 410 189 380 q 157 338 139 283 q 120 227 120 173 q 120 109 150 72 q 180 35 231 35 q 278 35 323 79 q 369 122 379 178 z"},"d":{"x_min":0,"x_max":583,"ha":583,"o":"m 379 178 l 402 300 q 403 308 404 314 q 405 321 405 328 q 405 376 375 409 q 345 441 299 441 q 268 441 240 426 q 212 410 189 380 q 157 338 139 283 q 120 227 120 173 q 120 109 150 72 q 180 35 231 35 q 278 35 323 79 q 369 122 379 178 z m 466 632 l 389 632 l 397 671 l 411 671 q 442 671 478 674 q 513 677 555 683 l 448 125 q 444 104 442 87 q 440 70 440 64 q 440 51 447 45 q 453 38 465 38 q 473 38 485 44 q 497 49 513 61 l 511 19 q 482 3 459 -5 q 436 -12 416 -12 q 387 -12 374 2 q 361 16 361 48 q 361 55 363 72 q 363 74 363 75 q 326 30 285 9 q 244 -12 194 -12 q 118 -12 74 38 q 30 89 30 177 q 30 239 54 300 q 78 361 121 410 q 152 445 196 464 q 239 484 286 484 q 335 484 370 461 q 404 439 420 397 z"},"1":{"x_min":0,"x_max":542,"ha":542,"o":"m 97 0 l 105 42 l 185 42 l 289 582 q 258 561 224 540 q 190 519 153 497 l 133 535 q 189 564 237 598 q 286 632 328 671 l 386 671 l 264 42 l 346 42 l 338 0 l 330 0 q 249 2 210 2 q 188 2 164 1 q 140 1 97 0 z"},"5":{"x_min":0,"x_max":542,"ha":542,"o":"m 97 154 q 99 95 128 62 q 157 29 209 29 q 282 29 329 92 q 377 156 377 253 q 377 319 347 354 q 317 388 260 388 q 221 388 183 370 q 145 352 101 312 l 90 317 q 117 413 139 499 q 161 584 179 662 q 216 661 252 660 q 288 659 324 659 q 360 659 396 660 q 431 661 466 662 l 452 595 q 402 594 378 593 q 354 593 333 593 q 312 593 288 593 q 263 594 217 595 q 205 548 192 500 q 180 453 166 403 q 192 418 224 426 q 256 433 293 433 q 371 433 420 381 q 469 329 469 245 q 469 133 395 62 q 321 -9 203 -9 q 125 -9 77 27 q 29 63 19 132 z"}}}
